# xmcd
#
# Track frame offsets:
#	150
#	10328
#	19711
#	31117
#	42412
#	53460
#	66335
#	74699
#	83000
#	95646
#	103966
#	112269
#	125183
#	136824
#	149203
#	161459
#	172714
#	186808
#	197230
#	222477
#	236835
#	250648
#	270949
#	288368
#	311440
#
# Disc length: 4313 seconds
#
# Revision: 0
# Processed by: cddbd v1.5.2PL0 Copyright (c) Steve Scherf et al.
# Submitted via: audiograbber 1.83.01
#
DISCID=7310d719
DTITLE=Chuck Berry - Rock And Roll Music - Any Old Way You Choose It [CD 11) - 
DTITLE=Studio 1979 (+1960-1966)
DYEAR=2014
DGENRE=Rock and Roll
TTITLE0=I Got To Find My Baby [1986]
TTITLE1=Bye Bye Johnny [1986]
TTITLE2=Run Around [1967]
TTITLE3=Diploma For Two [1967]
TTITLE4=Down The Road Apiece [longer fading] [1986]
TTITLE5=Route 66 [alternate take] [1986]
TTITLE6=I'm Talking About You [1986]
TTITLE7=Come On [alternate take] [1967]
TTITLE8=Go Go Go [1986]
TTITLE9=Brown Eyed Handsome Man [remix] [1979]
TTITLE10=Jamaica Farewell [mono 1965]
TTITLE11=My Mustang Ford [remix] [1986]
TTITLE12=It Wasn't Me [alternate take] [1986]
TTITLE13=Ain't That Just Like A Woman [unfaded] [1986]
TTITLE14=Ramona, Say Yes [alternate mix] [1988]
TTITLE15=Move It [1979]
TTITLE16=Oh What A Thrill [1979]
TTITLE17=California [1979]
TTITLE18=Pass Away [1979]
TTITLE19=I Need You Baby [1979]
TTITLE20=If I Were [1979]
TTITLE21=House Lights [1979]
TTITLE22=I Never Thought [1979]
TTITLE23=Havana Moon [1979]
TTITLE24=Wuden't Me [1979]
EXTD=
EXTT0=
EXTT1=
EXTT2=
EXTT3=
EXTT4=
EXTT5=
EXTT6=
EXTT7=
EXTT8=
EXTT9=
EXTT10=
EXTT11=
EXTT12=
EXTT13=
EXTT14=
EXTT15=
EXTT16=
EXTT17=
EXTT18=
EXTT19=
EXTT20=
EXTT21=
EXTT22=
EXTT23=
EXTT24=
PLAYORDER=
